<?xml version="1.0" encoding="UTF-8"?>
<svg id="svg10" xmlns="http://www.w3.org/2000/svg" version="1.1" viewBox="0 0 512 412.3">
  <!-- Generator: Adobe Illustrator 29.5.1, SVG Export Plug-In . SVG Version: 2.1.0 Build 141)  -->
  <defs>
    <style>
      .st0 {
        fill: #358526;
      }

      .st1 {
        fill: #fefefe;
      }

      .st2 {
        fill: #fdfdfd;
      }
    </style>
  </defs>
  <path class="st0" d="M451.2,207v19.7c-1,43-19.5,87.9-48.5,120.6-5.1,5.8-10.5,10.8-16.1,16.1s-6.5,5.8-7.2,5.8-.4,0-.7-.1l-52.1-86.9c-.2-.4.2-.7.6-.7l69.2,38.2-91.7-79.8c-.3-.3,0-.7.3-.9l118.4,18-111.9-39.9c-.4-.2-.3-.6,0-.9l115.8-28.5-118.5,7.6c-.5,0-.5-.5-.4-.9l92.2-70-104.5,52.8c-.4.2-.7-.2-.7-.6l57.1-101.5-75.3,87.4c-.3.3-.7,0-.9-.3l15.1-119.3-36,115.7c-.2.4-.6.3-.9,0l-31.1-119.4,8.4,124c-.2.3-.5.3-.9.2l-71.8-92.9,53.8,102.7c.1,1.1-1,.7-1.7.4l-104.4-57,93.5,76.7c.3.3,0,.7-.3.9l-116.7-12.1,113.2,33.4c.4.2.3.6,0,.9l-114.6,33.7-1.7.3c39.5-4.6,79-9.1,118.5-13.5.9-.1,1.7-.2,1.5.8l-92.5,78.6c24.7-12.9,49.4-25.8,74.1-38.8,5.9-9.3,11.8-18.6,17.6-28.1h.5s.1-.4.1-.4h18.6l1.2.4-1.2-.4-12.4-9.1c-.3-.2-.4-.5-.2-.9l46.8-74.7c.3-.3.6,0,.8.3l-27.4,88.4h-.5c0,.1.3-.3.3-.3h70.3l.3.4,1.2.4,4.3,2.9c5.3,3,10.4,6.3,15.3,9.8.2.3,0,.5-.3.6l-.2.4h-93.9l-.3-.4.3.3c-14,43.5-28.1,86.9-42.2,130.4h-.5c0,.1-1,.1-1,.1l-2.3-.5c-41.8-17.6-76.3-49.1-97.6-89.3s-21.2-52.6-22.3-80-.4-28.2,1.8-42C72.5,100.2,140.4,33.9,225.7,21.4s23.5-2,35.4-1.7c45.4,1,89.6,18.9,123.6,48.9,39.5,34.9,64.9,85.6,66.5,138.4Z"/>
  <path class="st2" d="M180.8,397.7l42.3-130.8h94.4c.1-.5,0-.3-.3-.5-6.1-4.8-14-8.4-20.2-13.2h-70.9l27.5-88.8-47,75.1,13.6,9.9h-19.9l-17.3,27.9-.5.5c-24.5,12.4-48.5,25.8-73.1,38.2s-2.3,1.3-3.6,1.6l94.7-80.4c-1.7,0-3.4.2-5.1.4-38.4,4.2-76.7,9-115.1,13l-.3-.4,117-34.4-118-34.9,121.6,12.6-94.7-77.7c-.1-.7.5-.4.9-.2l105.1,57.4,1.1.3-56.3-107.3,75,97-8.6-126,.6.3,31.5,121,36.6-117.6h.5c0,0-15.3,121.4-15.3,121.4l78.3-91-59.4,105.5,109-55-96.2,73,123.5-7.9-120.5,29.7,116.3,41.5-123.1-18.7,94.9,82.6-72.9-40.2,52.1,87.1c.3.2.5,0,.7-.1.6-.3,1.9-1.5,2.5-2.1,37.8-31,62.5-78.9,67.9-127.4l1.1-12.5v170.9H180.8Z"/>
  <path class="st1" d="M179.7,397.7H57.3V19.5h393.9v187.5l-.2-.5c-3.4-75.2-51.3-142.5-120.3-171.4C244.8-.8,145.9,28,92.8,103.6c-49.3,70.3-46.8,164.5,5.5,232.3,21,27.3,49.4,48.7,81.3,61.8Z"/>
</svg>